<mxfile host="app.diagrams.net" agent="Mozilla/5.0 (Windows NT 10.0; Win64; x64) AppleWebKit/537.36 (KHTML, like Gecko) Chrome/137.0.0.0 Safari/537.36" version="28.0.0">
  <diagram name="Page-1" id="wz7III1piZr8AJIKcXIH">
    <mxGraphModel dx="592" dy="389" grid="1" gridSize="10" guides="1" tooltips="1" connect="1" arrows="1" fold="1" page="1" pageScale="1" pageWidth="850" pageHeight="1100" math="0" shadow="0">
      <root>
        <mxCell id="0" />
        <mxCell id="1" parent="0" />
        <mxCell id="Eb1cNF9xhTQOmfG6rC0o-1" value="" style="rounded=0;whiteSpace=wrap;html=1;fillColor=none;" vertex="1" parent="1">
          <mxGeometry x="160" y="340" width="360" height="120" as="geometry" />
        </mxCell>
        <mxCell id="Eb1cNF9xhTQOmfG6rC0o-2" value="" style="ellipse;whiteSpace=wrap;html=1;aspect=fixed;" vertex="1" parent="1">
          <mxGeometry x="170" y="394" width="10" height="10" as="geometry" />
        </mxCell>
        <mxCell id="Eb1cNF9xhTQOmfG6rC0o-3" value="" style="ellipse;whiteSpace=wrap;html=1;aspect=fixed;" vertex="1" parent="1">
          <mxGeometry x="183" y="394" width="10" height="10" as="geometry" />
        </mxCell>
        <mxCell id="Eb1cNF9xhTQOmfG6rC0o-4" value="" style="ellipse;whiteSpace=wrap;html=1;aspect=fixed;" vertex="1" parent="1">
          <mxGeometry x="196" y="394" width="10" height="10" as="geometry" />
        </mxCell>
        <mxCell id="Eb1cNF9xhTQOmfG6rC0o-5" value="" style="ellipse;whiteSpace=wrap;html=1;aspect=fixed;" vertex="1" parent="1">
          <mxGeometry x="230" y="380" width="10" height="10" as="geometry" />
        </mxCell>
        <mxCell id="Eb1cNF9xhTQOmfG6rC0o-6" value="" style="ellipse;whiteSpace=wrap;html=1;aspect=fixed;" vertex="1" parent="1">
          <mxGeometry x="243" y="380" width="10" height="10" as="geometry" />
        </mxCell>
        <mxCell id="Eb1cNF9xhTQOmfG6rC0o-7" value="" style="ellipse;whiteSpace=wrap;html=1;aspect=fixed;" vertex="1" parent="1">
          <mxGeometry x="256" y="380" width="10" height="10" as="geometry" />
        </mxCell>
        <mxCell id="Eb1cNF9xhTQOmfG6rC0o-8" value="" style="ellipse;whiteSpace=wrap;html=1;aspect=fixed;" vertex="1" parent="1">
          <mxGeometry x="290" y="366" width="10" height="10" as="geometry" />
        </mxCell>
        <mxCell id="Eb1cNF9xhTQOmfG6rC0o-9" value="" style="ellipse;whiteSpace=wrap;html=1;aspect=fixed;" vertex="1" parent="1">
          <mxGeometry x="303" y="366" width="10" height="10" as="geometry" />
        </mxCell>
        <mxCell id="Eb1cNF9xhTQOmfG6rC0o-10" value="" style="ellipse;whiteSpace=wrap;html=1;aspect=fixed;" vertex="1" parent="1">
          <mxGeometry x="316" y="366" width="10" height="10" as="geometry" />
        </mxCell>
        <mxCell id="Eb1cNF9xhTQOmfG6rC0o-11" value="" style="ellipse;whiteSpace=wrap;html=1;aspect=fixed;" vertex="1" parent="1">
          <mxGeometry x="350" y="352" width="10" height="10" as="geometry" />
        </mxCell>
        <mxCell id="Eb1cNF9xhTQOmfG6rC0o-12" value="" style="ellipse;whiteSpace=wrap;html=1;aspect=fixed;" vertex="1" parent="1">
          <mxGeometry x="363" y="352" width="10" height="10" as="geometry" />
        </mxCell>
        <mxCell id="Eb1cNF9xhTQOmfG6rC0o-13" value="" style="ellipse;whiteSpace=wrap;html=1;aspect=fixed;" vertex="1" parent="1">
          <mxGeometry x="376" y="352" width="10" height="10" as="geometry" />
        </mxCell>
        <mxCell id="Eb1cNF9xhTQOmfG6rC0o-17" value="" style="ellipse;whiteSpace=wrap;html=1;aspect=fixed;" vertex="1" parent="1">
          <mxGeometry x="410" y="366" width="10" height="10" as="geometry" />
        </mxCell>
        <mxCell id="Eb1cNF9xhTQOmfG6rC0o-18" value="" style="ellipse;whiteSpace=wrap;html=1;aspect=fixed;" vertex="1" parent="1">
          <mxGeometry x="423" y="366" width="10" height="10" as="geometry" />
        </mxCell>
        <mxCell id="Eb1cNF9xhTQOmfG6rC0o-19" value="" style="ellipse;whiteSpace=wrap;html=1;aspect=fixed;" vertex="1" parent="1">
          <mxGeometry x="436" y="366" width="10" height="10" as="geometry" />
        </mxCell>
        <mxCell id="Eb1cNF9xhTQOmfG6rC0o-20" value="" style="ellipse;whiteSpace=wrap;html=1;aspect=fixed;" vertex="1" parent="1">
          <mxGeometry x="470" y="366" width="10" height="10" as="geometry" />
        </mxCell>
        <mxCell id="Eb1cNF9xhTQOmfG6rC0o-21" value="" style="ellipse;whiteSpace=wrap;html=1;aspect=fixed;" vertex="1" parent="1">
          <mxGeometry x="483" y="366" width="10" height="10" as="geometry" />
        </mxCell>
        <mxCell id="Eb1cNF9xhTQOmfG6rC0o-22" value="" style="ellipse;whiteSpace=wrap;html=1;aspect=fixed;" vertex="1" parent="1">
          <mxGeometry x="496" y="366" width="10" height="10" as="geometry" />
        </mxCell>
        <mxCell id="Eb1cNF9xhTQOmfG6rC0o-23" value="Traditional BOIN Design" style="text;html=1;align=center;verticalAlign=middle;whiteSpace=wrap;rounded=0;" vertex="1" parent="1">
          <mxGeometry x="260" y="433" width="160" height="30" as="geometry" />
        </mxCell>
        <mxCell id="Eb1cNF9xhTQOmfG6rC0o-24" value="" style="endArrow=none;html=1;rounded=0;dashed=1;" edge="1" parent="1">
          <mxGeometry width="50" height="50" relative="1" as="geometry">
            <mxPoint x="207" y="404" as="sourcePoint" />
            <mxPoint x="207" y="345" as="targetPoint" />
          </mxGeometry>
        </mxCell>
        <mxCell id="Eb1cNF9xhTQOmfG6rC0o-25" value="" style="endArrow=none;html=1;rounded=0;dashed=1;" edge="1" parent="1">
          <mxGeometry width="50" height="50" relative="1" as="geometry">
            <mxPoint x="229" y="392" as="sourcePoint" />
            <mxPoint x="229" y="346" as="targetPoint" />
          </mxGeometry>
        </mxCell>
        <mxCell id="Eb1cNF9xhTQOmfG6rC0o-26" value="" style="endArrow=none;html=1;rounded=0;dashed=1;" edge="1" parent="1">
          <mxGeometry width="50" height="50" relative="1" as="geometry">
            <mxPoint x="267" y="392" as="sourcePoint" />
            <mxPoint x="267" y="346" as="targetPoint" />
          </mxGeometry>
        </mxCell>
        <mxCell id="Eb1cNF9xhTQOmfG6rC0o-27" value="" style="endArrow=none;html=1;rounded=0;dashed=1;" edge="1" parent="1">
          <mxGeometry width="50" height="50" relative="1" as="geometry">
            <mxPoint x="289" y="380" as="sourcePoint" />
            <mxPoint x="289" y="347" as="targetPoint" />
          </mxGeometry>
        </mxCell>
        <mxCell id="Eb1cNF9xhTQOmfG6rC0o-28" value="" style="endArrow=none;html=1;rounded=0;dashed=1;" edge="1" parent="1">
          <mxGeometry width="50" height="50" relative="1" as="geometry">
            <mxPoint x="327" y="380" as="sourcePoint" />
            <mxPoint x="327" y="347" as="targetPoint" />
          </mxGeometry>
        </mxCell>
        <mxCell id="Eb1cNF9xhTQOmfG6rC0o-29" value="" style="endArrow=none;html=1;rounded=0;dashed=1;" edge="1" parent="1">
          <mxGeometry width="50" height="50" relative="1" as="geometry">
            <mxPoint x="349" y="368" as="sourcePoint" />
            <mxPoint x="349" y="347" as="targetPoint" />
          </mxGeometry>
        </mxCell>
        <mxCell id="Eb1cNF9xhTQOmfG6rC0o-30" value="" style="endArrow=none;html=1;rounded=0;dashed=1;" edge="1" parent="1">
          <mxGeometry width="50" height="50" relative="1" as="geometry">
            <mxPoint x="387.47" y="368" as="sourcePoint" />
            <mxPoint x="387.47" y="347" as="targetPoint" />
          </mxGeometry>
        </mxCell>
        <mxCell id="Eb1cNF9xhTQOmfG6rC0o-31" value="" style="endArrow=none;html=1;rounded=0;dashed=1;" edge="1" parent="1">
          <mxGeometry width="50" height="50" relative="1" as="geometry">
            <mxPoint x="409.47" y="380" as="sourcePoint" />
            <mxPoint x="409.47" y="347" as="targetPoint" />
          </mxGeometry>
        </mxCell>
        <mxCell id="Eb1cNF9xhTQOmfG6rC0o-32" value="" style="endArrow=none;html=1;rounded=0;dashed=1;" edge="1" parent="1">
          <mxGeometry width="50" height="50" relative="1" as="geometry">
            <mxPoint x="447" y="380" as="sourcePoint" />
            <mxPoint x="447" y="347" as="targetPoint" />
          </mxGeometry>
        </mxCell>
        <mxCell id="Eb1cNF9xhTQOmfG6rC0o-33" value="" style="endArrow=none;html=1;rounded=0;dashed=1;" edge="1" parent="1">
          <mxGeometry width="50" height="50" relative="1" as="geometry">
            <mxPoint x="469" y="380" as="sourcePoint" />
            <mxPoint x="469" y="347" as="targetPoint" />
          </mxGeometry>
        </mxCell>
        <mxCell id="Eb1cNF9xhTQOmfG6rC0o-34" value="" style="endArrow=baseDash;startArrow=baseDash;html=1;rounded=0;startFill=0;endFill=0;strokeColor=#CC0000;" edge="1" parent="1">
          <mxGeometry width="50" height="50" relative="1" as="geometry">
            <mxPoint x="207" y="351.53" as="sourcePoint" />
            <mxPoint x="229" y="351.53" as="targetPoint" />
          </mxGeometry>
        </mxCell>
        <mxCell id="Eb1cNF9xhTQOmfG6rC0o-35" value="" style="endArrow=baseDash;startArrow=baseDash;html=1;rounded=0;startFill=0;endFill=0;strokeColor=#CC0000;" edge="1" parent="1">
          <mxGeometry width="50" height="50" relative="1" as="geometry">
            <mxPoint x="267" y="351.53" as="sourcePoint" />
            <mxPoint x="289" y="351.53" as="targetPoint" />
          </mxGeometry>
        </mxCell>
        <mxCell id="Eb1cNF9xhTQOmfG6rC0o-36" value="" style="endArrow=baseDash;startArrow=baseDash;html=1;rounded=0;startFill=0;endFill=0;strokeColor=#CC0000;" edge="1" parent="1">
          <mxGeometry width="50" height="50" relative="1" as="geometry">
            <mxPoint x="327" y="351.53" as="sourcePoint" />
            <mxPoint x="349" y="351.53" as="targetPoint" />
          </mxGeometry>
        </mxCell>
        <mxCell id="Eb1cNF9xhTQOmfG6rC0o-37" value="" style="endArrow=baseDash;startArrow=baseDash;html=1;rounded=0;startFill=0;endFill=0;strokeColor=#CC0000;" edge="1" parent="1">
          <mxGeometry width="50" height="50" relative="1" as="geometry">
            <mxPoint x="387.5" y="351.53" as="sourcePoint" />
            <mxPoint x="409.5" y="351.53" as="targetPoint" />
          </mxGeometry>
        </mxCell>
        <mxCell id="Eb1cNF9xhTQOmfG6rC0o-38" value="" style="endArrow=baseDash;startArrow=baseDash;html=1;rounded=0;startFill=0;endFill=0;strokeColor=#CC0000;" edge="1" parent="1">
          <mxGeometry width="50" height="50" relative="1" as="geometry">
            <mxPoint x="447" y="351.53" as="sourcePoint" />
            <mxPoint x="469" y="351.53" as="targetPoint" />
          </mxGeometry>
        </mxCell>
        <mxCell id="Eb1cNF9xhTQOmfG6rC0o-39" value="" style="ellipse;whiteSpace=wrap;html=1;aspect=fixed;strokeColor=#666666;" vertex="1" parent="1">
          <mxGeometry x="207" y="275" width="10" height="10" as="geometry" />
        </mxCell>
        <mxCell id="Eb1cNF9xhTQOmfG6rC0o-40" value="" style="ellipse;whiteSpace=wrap;html=1;aspect=fixed;strokeColor=#666666;" vertex="1" parent="1">
          <mxGeometry x="220" y="275" width="10" height="10" as="geometry" />
        </mxCell>
        <mxCell id="Eb1cNF9xhTQOmfG6rC0o-41" value="" style="ellipse;whiteSpace=wrap;html=1;aspect=fixed;strokeColor=#666666;" vertex="1" parent="1">
          <mxGeometry x="273" y="275" width="10" height="10" as="geometry" />
        </mxCell>
        <mxCell id="Eb1cNF9xhTQOmfG6rC0o-42" value="" style="ellipse;whiteSpace=wrap;html=1;aspect=fixed;strokeColor=#666666;" vertex="1" parent="1">
          <mxGeometry x="320" y="275" width="10" height="10" as="geometry" />
        </mxCell>
        <mxCell id="Eb1cNF9xhTQOmfG6rC0o-43" value="" style="ellipse;whiteSpace=wrap;html=1;aspect=fixed;strokeColor=#666666;" vertex="1" parent="1">
          <mxGeometry x="333" y="275" width="10" height="10" as="geometry" />
        </mxCell>
        <mxCell id="Eb1cNF9xhTQOmfG6rC0o-44" value="" style="ellipse;whiteSpace=wrap;html=1;aspect=fixed;strokeColor=#666666;" vertex="1" parent="1">
          <mxGeometry x="346" y="275" width="10" height="10" as="geometry" />
        </mxCell>
        <mxCell id="Eb1cNF9xhTQOmfG6rC0o-45" value="" style="ellipse;whiteSpace=wrap;html=1;aspect=fixed;strokeColor=#666666;" vertex="1" parent="1">
          <mxGeometry x="386" y="275" width="10" height="10" as="geometry" />
        </mxCell>
        <mxCell id="Eb1cNF9xhTQOmfG6rC0o-46" value="" style="ellipse;whiteSpace=wrap;html=1;aspect=fixed;strokeColor=#666666;" vertex="1" parent="1">
          <mxGeometry x="399" y="275" width="10" height="10" as="geometry" />
        </mxCell>
        <mxCell id="Eb1cNF9xhTQOmfG6rC0o-47" value="" style="ellipse;whiteSpace=wrap;html=1;aspect=fixed;strokeColor=#666666;" vertex="1" parent="1">
          <mxGeometry x="452" y="275" width="10" height="10" as="geometry" />
        </mxCell>
        <mxCell id="Eb1cNF9xhTQOmfG6rC0o-48" value="" style="rounded=0;whiteSpace=wrap;html=1;fillColor=none;dashed=1;dashPattern=8 8;strokeColor=#000000;points=[[0,0,0,0,0],[0,0.25,0,0,0],[0,0.5,0,0,0],[0,0.75,0,0,0],[0,1,0,0,0],[0.02,1,0,0,0],[0.03,1,0,0,0],[0.04,1,0,0,0],[0.06,1,0,0,0],[0.08,1,0,0,0],[0.1,1,0,0,0],[0.12,1,0,0,0],[0.13,1,0,0,0],[0.14,1,0,0,0],[0.16,1,0,0,0],[0.18,1,0,0,0],[0.19,1,0,0,0],[0.2,1,0,0,0],[0.22,1,0,0,0],[0.23,1,0,0,0],[0.24,1,0,0,0],[0.25,0,0,0,0],[0.25,1,0,0,0],[0.26,1,0,0,0],[0.27,1,0,0,0],[0.29,1,0,0,0],[0.31,1,0,0,0],[0.32,1,0,0,0],[0.33,1,0,0,0],[0.35,1,0,0,0],[0.37,1,0,0,0],[0.38,1,0,0,0],[0.39,1,0,0,0],[0.41,1,0,0,0],[0.42,1,0,0,0],[0.43,1,0,0,0],[0.44,1,0,0,0],[0.45,1,0,0,0],[0.47,1,0,0,0],[0.48,1,0,0,0],[0.49,1,0,0,0],[0.5,0,0,0,0],[0.5,1,0,0,0],[0.51,1,0,0,0],[0.52,1,0,0,0],[0.53,1,0,0,0],[0.55,1,0,0,0],[0.56,1,0,0,0],[0.57,1,0,0,0],[0.58,1,0,0,0],[0.59,1,0,0,0],[0.61,1,0,0,0],[0.63,1,0,0,0],[0.65,1,0,0,0],[0.67,1,0,0,0],[0.68,1,0,0,0],[0.69,1,0,0,0],[0.71,1,0,0,0],[0.73,1,0,0,0],[0.74,1,0,0,0],[0.75,0,0,0,0],[0.75,1,0,0,0],[0.76,1,0,0,0],[0.77,1,0,0,0],[0.78,1,0,0,0],[0.8,1,0,0,0],[0.81,1,0,0,0],[0.82,1,0,0,0],[0.84,1,0,0,0],[0.86,1,0,0,0],[0.87,1,0,0,0],[0.88,1,0,0,0],[0.9,1,0,0,0],[0.92,1,0,0,0],[0.94,1,0,0,0],[0.96,1,0,0,0],[0.97,1,0,0,0],[0.98,1,0,0,0],[1,0,0,0,0],[1,0.25,0,0,0],[1,0.5,0,0,0],[1,0.75,0,0,0],[1,1,0,0,0]];" vertex="1" parent="1">
          <mxGeometry x="194" y="263.5" width="280" height="33" as="geometry" />
        </mxCell>
        <mxCell id="Eb1cNF9xhTQOmfG6rC0o-55" value="" style="endArrow=classic;html=1;rounded=0;strokeColor=#666666;" edge="1" parent="1">
          <mxGeometry width="50" height="50" relative="1" as="geometry">
            <mxPoint x="169" y="412" as="sourcePoint" />
            <mxPoint x="515" y="412" as="targetPoint" />
          </mxGeometry>
        </mxCell>
        <mxCell id="Eb1cNF9xhTQOmfG6rC0o-56" value="&lt;font style=&quot;color: rgb(102, 102, 102); font-size: 10px;&quot;&gt;Time&lt;/font&gt;" style="text;html=1;align=center;verticalAlign=middle;whiteSpace=wrap;rounded=0;" vertex="1" parent="1">
          <mxGeometry x="308" y="409" width="60" height="30" as="geometry" />
        </mxCell>
        <mxCell id="Eb1cNF9xhTQOmfG6rC0o-57" value="" style="endArrow=baseDash;startArrow=baseDash;html=1;rounded=0;startFill=0;endFill=0;strokeColor=#CC0000;" edge="1" parent="1">
          <mxGeometry width="50" height="50" relative="1" as="geometry">
            <mxPoint x="160" y="472" as="sourcePoint" />
            <mxPoint x="182" y="472" as="targetPoint" />
          </mxGeometry>
        </mxCell>
        <mxCell id="Eb1cNF9xhTQOmfG6rC0o-58" value="&lt;font style=&quot;font-size: 8px;&quot;&gt;: await completion of the current DLT assessment&lt;/font&gt;" style="text;html=1;align=left;verticalAlign=middle;whiteSpace=wrap;rounded=0;fontColor=#666666;" vertex="1" parent="1">
          <mxGeometry x="183" y="455" width="187" height="30" as="geometry" />
        </mxCell>
        <mxCell id="Eb1cNF9xhTQOmfG6rC0o-70" style="edgeStyle=orthogonalEdgeStyle;rounded=0;orthogonalLoop=1;jettySize=auto;html=1;exitX=0.29;exitY=1;exitDx=0;exitDy=0;exitPerimeter=0;entryX=0.32;entryY=0.007;entryDx=0;entryDy=0;entryPerimeter=0;strokeColor=#666666;" edge="1" parent="1">
          <mxGeometry relative="1" as="geometry">
            <mxPoint x="278.20000000000005" y="296.5" as="sourcePoint" />
            <mxPoint x="278.20000000000005" y="340.665" as="targetPoint" />
          </mxGeometry>
        </mxCell>
        <mxCell id="Eb1cNF9xhTQOmfG6rC0o-71" style="edgeStyle=orthogonalEdgeStyle;rounded=0;orthogonalLoop=1;jettySize=auto;html=1;exitX=0.29;exitY=1;exitDx=0;exitDy=0;exitPerimeter=0;entryX=0.32;entryY=0.007;entryDx=0;entryDy=0;entryPerimeter=0;strokeColor=#666666;" edge="1" parent="1">
          <mxGeometry relative="1" as="geometry">
            <mxPoint x="217.89" y="295.83" as="sourcePoint" />
            <mxPoint x="217.89" y="339.995" as="targetPoint" />
          </mxGeometry>
        </mxCell>
        <mxCell id="Eb1cNF9xhTQOmfG6rC0o-72" style="edgeStyle=orthogonalEdgeStyle;rounded=0;orthogonalLoop=1;jettySize=auto;html=1;exitX=0.29;exitY=1;exitDx=0;exitDy=0;exitPerimeter=0;entryX=0.32;entryY=0.007;entryDx=0;entryDy=0;entryPerimeter=0;strokeColor=#666666;" edge="1" parent="1">
          <mxGeometry relative="1" as="geometry">
            <mxPoint x="337.89" y="296.5" as="sourcePoint" />
            <mxPoint x="337.89" y="340.665" as="targetPoint" />
          </mxGeometry>
        </mxCell>
        <mxCell id="Eb1cNF9xhTQOmfG6rC0o-73" style="edgeStyle=orthogonalEdgeStyle;rounded=0;orthogonalLoop=1;jettySize=auto;html=1;exitX=0.29;exitY=1;exitDx=0;exitDy=0;exitPerimeter=0;entryX=0.32;entryY=0.007;entryDx=0;entryDy=0;entryPerimeter=0;strokeColor=#666666;" edge="1" parent="1">
          <mxGeometry relative="1" as="geometry">
            <mxPoint x="398" y="296.5" as="sourcePoint" />
            <mxPoint x="398" y="340.665" as="targetPoint" />
          </mxGeometry>
        </mxCell>
        <mxCell id="Eb1cNF9xhTQOmfG6rC0o-74" style="edgeStyle=orthogonalEdgeStyle;rounded=0;orthogonalLoop=1;jettySize=auto;html=1;exitX=0.29;exitY=1;exitDx=0;exitDy=0;exitPerimeter=0;entryX=0.32;entryY=0.007;entryDx=0;entryDy=0;entryPerimeter=0;strokeColor=#666666;" edge="1" parent="1">
          <mxGeometry relative="1" as="geometry">
            <mxPoint x="456.83" y="296.5" as="sourcePoint" />
            <mxPoint x="456.83" y="340.665" as="targetPoint" />
          </mxGeometry>
        </mxCell>
        <mxCell id="Eb1cNF9xhTQOmfG6rC0o-75" value="Backfilling patients" style="text;html=1;align=center;verticalAlign=middle;whiteSpace=wrap;rounded=0;" vertex="1" parent="1">
          <mxGeometry x="245" y="233.5" width="160" height="30" as="geometry" />
        </mxCell>
      </root>
    </mxGraphModel>
  </diagram>
</mxfile>
